<?xml version="1.0" standalone="no"?>
<!DOCTYPE svg PUBLIC "-//W3C//DTD SVG 20010904//EN"
 "http://www.w3.org/TR/2001/REC-SVG-20010904/DTD/svg10.dtd">
<svg version="1.0" xmlns="http://www.w3.org/2000/svg"
 width="512.000000pt" height="512.000000pt" viewBox="0 0 512.000000 512.000000"
 preserveAspectRatio="xMidYMid meet">

<g transform="translate(0.000000,512.000000) scale(0.100000,-0.100000)"
fill="#000000" stroke="none">
<path d="M855 4759 c-213 -36 -399 -200 -475 -419 -18 -51 -23 -88 -24 -175
-2 -172 46 -300 156 -421 51 -55 145 -126 192 -144 18 -6 23 -14 19 -29 -5
-19 27 -61 47 -61 6 0 22 11 35 24 22 22 27 23 82 14 68 -11 172 -3 246 19
286 84 484 385 439 666 -9 55 -8 61 14 82 15 15 21 30 17 44 -6 25 -38 45 -58
37 -10 -3 -25 15 -47 57 -47 90 -164 203 -258 249 -121 59 -256 79 -385 57z
m230 -104 c97 -25 165 -64 236 -134 165 -164 203 -395 100 -599 -85 -168 -263
-276 -456 -276 -327 0 -570 298 -504 616 38 184 199 349 382 394 72 17 172 17
242 -1z"/>
<path d="M3944 4731 c-28 -10 -73 -31 -100 -47 -70 -40 -194 -168 -227 -235
-22 -44 -32 -56 -47 -52 -18 5 -60 -28 -60 -47 0 -6 10 -21 23 -34 22 -22 23
-27 14 -96 -18 -132 22 -289 104 -411 124 -183 372 -295 582 -261 55 9 60 8
82 -14 13 -13 29 -24 35 -24 20 0 52 42 47 62 -4 12 1 21 11 25 47 17 147 91
195 143 221 238 219 600 -4 835 -74 77 -145 125 -234 156 -69 24 -102 19 -111
-17 -9 -34 15 -58 72 -74 64 -18 150 -77 211 -143 155 -171 175 -423 48 -622
-72 -114 -216 -205 -356 -227 -332 -50 -630 246 -582 577 26 184 164 357 329
411 80 27 104 62 68 98 -20 20 -37 20 -100 -3z"/>
<path d="M2466 4644 c-20 -20 -20 -48 0 -68 11 -12 36 -16 94 -16 83 0 110 12
110 50 0 38 -27 50 -110 50 -58 0 -83 -4 -94 -16z"/>
<path d="M2175 4624 c-88 -17 -117 -50 -79 -88 18 -19 41 -20 120 -5 69 14 84
23 84 55 0 20 -34 56 -50 53 -3 0 -36 -7 -75 -15z"/>
<path d="M2836 4625 c-19 -19 -21 -59 -3 -72 18 -15 143 -36 171 -29 29 7 41
37 27 65 -10 19 -22 22 -152 47 -17 3 -33 -1 -43 -11z"/>
<path d="M1811 4522 c-75 -32 -90 -49 -73 -86 15 -34 46 -33 132 2 57 24 65
31 68 57 4 31 -18 56 -47 54 -9 0 -45 -13 -80 -27z"/>
<path d="M3196 4537 c-12 -9 -17 -23 -14 -42 3 -26 11 -33 68 -57 86 -35 117
-36 132 -2 17 37 2 54 -73 86 -74 31 -89 33 -113 15z"/>
<path d="M2485 4150 c-249 -33 -445 -221 -493 -473 l-16 -86 -45 -11 c-65 -16
-116 -52 -146 -104 -85 -145 2 -319 170 -343 39 -5 46 -10 50 -32 34 -168 127
-309 258 -390 37 -23 38 -24 35 -80 l-3 -56 -377 -215 c-207 -118 -386 -224
-398 -235 -41 -37 -58 -90 -120 -375 -34 -157 -63 -286 -65 -288 -1 -1 -36 15
-76 37 -41 22 -98 46 -128 55 -72 21 -195 30 -254 18 -44 -9 -50 -8 -72 14
-13 13 -29 24 -35 24 -18 0 -52 -41 -47 -59 3 -13 -10 -25 -50 -46 -74 -38
-190 -150 -233 -223 -70 -118 -87 -212 -40 -227 33 -11 57 12 76 71 24 76 79
158 147 221 201 183 507 175 702 -20 210 -210 203 -544 -15 -740 -209 -188
-511 -179 -711 22 -61 61 -91 110 -133 213 -13 32 -20 38 -46 38 -47 0 -57
-32 -31 -104 31 -89 68 -145 150 -227 187 -186 456 -230 698 -113 92 44 212
158 264 249 24 43 39 60 51 57 17 -3 58 30 58 47 0 6 -11 22 -23 37 -20 23
-23 33 -16 68 29 148 -17 330 -114 458 l-34 45 68 314 c37 172 74 324 81 337
14 27 31 37 463 281 176 99 330 187 343 196 19 13 22 25 22 76 l0 59 43 -7
c54 -10 180 -10 235 0 l42 7 0 -59 c0 -71 -9 -62 173 -163 l127 -72 0 -110 c0
-127 13 -166 69 -203 29 -20 47 -23 120 -23 l86 0 35 -51 c62 -91 135 -106
200 -41 l38 38 23 -95 c12 -53 41 -183 64 -290 l42 -194 -34 -45 c-98 -128
-140 -297 -114 -455 7 -44 6 -51 -15 -73 -13 -12 -24 -28 -24 -34 0 -19 42
-52 60 -47 15 4 25 -8 47 -52 42 -85 170 -208 263 -253 180 -88 371 -88 549
-1 105 52 222 169 273 273 48 98 73 220 64 317 -7 83 -44 204 -83 270 -53 91
-186 212 -267 243 -18 6 -23 14 -19 29 5 19 -27 61 -47 61 -6 0 -22 -11 -35
-24 -22 -22 -27 -23 -82 -14 -117 19 -248 -7 -372 -73 -40 -22 -75 -38 -76
-37 -2 2 -30 125 -62 275 l-59 271 201 4 202 3 36 28 c55 42 58 67 55 412 -3
289 -4 305 -24 332 -46 63 -43 63 -542 63 -491 0 -497 -1 -540 -55 -20 -26
-22 -39 -22 -176 0 -113 -3 -149 -12 -149 -7 0 -53 24 -103 53 l-90 52 -3 57
c-3 55 -2 56 35 79 132 81 219 213 257 390 5 22 12 27 51 32 88 13 148 57 184
137 58 127 -18 276 -157 310 l-48 11 -16 86 c-58 308 -338 513 -643 473z m166
-105 c26 -3 79 -21 119 -41 134 -64 233 -195 260 -342 14 -78 -4 -498 -25
-584 -52 -210 -228 -348 -444 -348 -218 0 -394 138 -446 348 -21 86 -39 506
-25 584 27 149 126 279 263 343 72 35 170 55 227 49 14 -2 46 -6 71 -9z m-667
-617 c3 -29 6 -86 6 -126 l0 -74 -32 8 c-71 15 -115 75 -104 143 6 43 64 101
99 101 22 0 25 -6 31 -52z m1241 20 c79 -73 44 -189 -63 -212 l-32 -8 0 74 c0
40 3 97 6 126 6 46 9 52 31 52 13 0 39 -15 58 -32z m823 -710 c9 -9 12 -90 12
-304 0 -253 -2 -295 -16 -308 -13 -14 -50 -16 -255 -16 l-239 0 -51 -65 c-28
-36 -52 -65 -53 -65 -1 0 -24 29 -50 65 l-48 65 -96 0 c-53 0 -104 5 -112 10
-13 8 -15 55 -18 299 -2 194 1 297 8 311 10 20 20 20 458 20 335 0 451 -3 460
-12z m220 -1273 c101 -24 170 -63 248 -140 204 -202 206 -514 5 -716 -201
-201 -505 -208 -717 -15 -71 64 -125 159 -149 257 -85 363 251 699 613 614z"/>
<path d="M626 3368 c-8 -13 -24 -49 -36 -82 -18 -47 -20 -63 -11 -83 9 -20 17
-24 44 -21 29 3 34 9 59 68 32 79 35 116 9 130 -30 16 -49 12 -65 -12z"/>
<path d="M4422 3378 c-18 -18 -13 -56 16 -128 25 -59 30 -65 59 -68 27 -3 35
1 44 21 9 20 7 36 -11 83 -12 33 -28 69 -36 82 -16 24 -53 29 -72 10z"/>
<path d="M527 3028 c-11 -8 -23 -42 -31 -88 -13 -66 -13 -78 0 -97 16 -25 56
-31 71 -10 12 14 33 118 33 158 0 41 -40 61 -73 37z"/>
<path d="M4538 3029 c-11 -6 -18 -22 -18 -38 0 -40 21 -144 33 -158 15 -21 55
-15 71 10 13 19 13 31 0 97 -17 91 -41 116 -86 89z"/>
<path d="M476 2654 c-12 -11 -16 -36 -16 -94 0 -83 12 -110 50 -110 38 0 50
27 50 110 0 83 -12 110 -50 110 -10 0 -26 -7 -34 -16z"/>
<path d="M4576 2654 c-12 -11 -16 -36 -16 -94 0 -83 12 -110 50 -110 38 0 50
27 50 110 0 83 -12 110 -50 110 -10 0 -26 -7 -34 -16z"/>
<path d="M496 2282 c-15 -17 -15 -25 -1 -98 14 -76 31 -104 61 -104 20 0 44
30 44 54 0 36 -22 140 -33 154 -14 18 -51 15 -71 -6z"/>
<path d="M4553 2288 c-15 -19 -36 -144 -29 -172 7 -29 37 -41 65 -27 19 10 22
22 47 152 9 46 -56 81 -83 47z"/>
<path d="M579 1917 c-9 -20 -7 -36 11 -83 29 -80 46 -104 73 -104 54 0 59 42
19 140 -25 59 -30 65 -59 68 -27 3 -35 -1 -44 -21z"/>
<path d="M4461 1921 c-24 -44 -52 -133 -49 -153 4 -29 50 -47 72 -29 8 7 27
44 42 83 21 57 24 74 15 94 -13 30 -65 34 -80 5z"/>
<path d="M1742 698 c-19 -19 -14 -56 11 -72 12 -8 48 -24 81 -36 47 -18 63
-20 83 -11 20 9 24 17 21 44 -3 29 -9 34 -68 59 -72 29 -110 34 -128 16z"/>
<path d="M3250 682 c-59 -25 -65 -30 -68 -59 -3 -27 1 -35 22 -44 21 -10 37
-7 97 17 83 33 98 50 81 88 -15 34 -46 33 -132 -2z"/>
<path d="M2090 581 c-24 -47 -1 -68 94 -86 73 -14 81 -14 98 1 21 20 24 57 6
72 -14 11 -117 32 -159 32 -18 0 -32 -7 -39 -19z"/>
<path d="M2895 586 c-27 -6 -56 -15 -62 -19 -21 -13 -15 -55 10 -71 19 -13 31
-13 97 0 93 17 123 49 84 88 -18 18 -57 19 -129 2z"/>
<path d="M2466 544 c-9 -8 -16 -24 -16 -34 0 -38 27 -50 110 -50 83 0 110 12
110 50 0 38 -27 50 -110 50 -58 0 -83 -4 -94 -16z"/>
</g>
</svg>
