<svg xmlns="http://www.w3.org/2000/svg" xmlns:xlink="http://www.w3.org/1999/xlink" width="127.94" height="161.999" viewBox="0 0 127.94 161.999"><defs><style>.a{fill:url(#a);}.b,.h{fill:#012339;}.b{opacity:0.1;}.c{fill:#fbac00;}.d{fill:#fff;}.e{fill:#d2deff;}.f{fill:#dcfdee;}.g{fill:#c3fffd;}.i{fill:#ffdfcf;}.j{fill:#0080d4;}.k{fill:#ef535d;}.l{fill:#02ffb3;}</style><linearGradient id="a" x1="0.05" y1="0.982" x2="1" y2="0.5" gradientUnits="objectBoundingBox"><stop offset="0" stop-color="#d3355b"/><stop offset="1" stop-color="#ef535b"/></linearGradient></defs><g transform="translate(-53.821 0)"><g transform="translate(53.821 0)"><path class="a" d="M90.56.123c-21.534,1.4-42.467,19.341-35.308,42.738,5.779,18.886,26.8,27.758,42.61,36.6,15.165,8.481,31.2,19.057,35.449,37.08,2.926,12.4-.659,26.868,6.965,37.078,13.394,17.938,39.258,4.314,41.232-14.953,1.638-15.992-9.97-29.964-20.828-41.818-10.526-11.491-22.294-22.583-31.638-35.071-8.652-11.565-13.175-25.94-1.7-37.4,2.577-2.573,5.647-5.222,4.706-9.408C128.955,1.245,101.1-.563,90.56.123Z" transform="translate(-53.821 0)"/><g transform="translate(5.281 12.234)"><path class="b" d="M192.993,98.045H181.5V87.607a8.287,8.287,0,0,0-8.287-8.287H117.678a8.286,8.286,0,0,0-8.287,8.287V98.045H96.456a3.164,3.164,0,0,0-3.164,3.164v21.937a3.164,3.164,0,0,0,3.164,3.164h12.936V153.6a17.358,17.358,0,0,0-6.349,13.436v39.381a3.164,3.164,0,0,0,3.164,3.164h59.58a3.164,3.164,0,0,0,3.164-3.164v-3.465h9.721a5.524,5.524,0,0,0,5.524-5.524v-2.486a5.516,5.516,0,0,0-2.7-4.739V126.31h11.493a3.164,3.164,0,0,0,3.164-3.164V101.209a3.164,3.164,0,0,0-3.164-3.164Z" transform="translate(-86.084 -66.457)"/><g transform="translate(16.959 4.368)"><path class="c" d="M232.312,416.95h31.672v15.836H232.312Z" transform="translate(-198.077 -301.627)"/><g transform="translate(6.348 0)"><path class="d" d="M216.284,63.607V167.992A8.284,8.284,0,0,1,208,176.278H152.462a8.286,8.286,0,0,1-8.287-8.287V63.607a8.286,8.286,0,0,1,8.287-8.287H208a8.284,8.284,0,0,1,8.287,8.287Z" transform="translate(-144.175 -54.419)"/><path class="e" d="M156.341,135.444V157.38a3.163,3.163,0,0,1-3.164,3.164h-9V132.28h9A3.165,3.165,0,0,1,156.341,135.444Z" transform="translate(-144.175 -107.028)"/><path class="e" d="M342.674,132.28v28.264H332.229a3.163,3.163,0,0,1-3.164-3.164V135.444a3.165,3.165,0,0,1,3.164-3.164Z" transform="translate(-270.565 -107.028)"/><g transform="translate(21.435 25.487)"><path class="f" d="M213.967,160.818h11.851a13.9,13.9,0,1,0-13.9-13.9v11.851a2.047,2.047,0,0,0,2.047,2.047Z" transform="translate(-211.92 -133.022)"/></g><path class="g" d="M144.179,244.323v52.871a8.286,8.286,0,0,0,8.286,8.286H208a8.286,8.286,0,0,0,8.286-8.286V244.323Z" transform="translate(-144.178 -183.62)"/><path class="h" d="M32.688,6.336,34.665,0H0L1.977,6.336a2.763,2.763,0,0,0,2.637,1.94H30.051A2.762,2.762,0,0,0,32.688,6.336Z" transform="translate(18.805 0) rotate(3)"/></g><g transform="translate(0 67.663)"><path class="i" d="M124.111,337.5V294.958A17.393,17.393,0,0,1,141.5,277.565h18.224a8.563,8.563,0,0,1,0,17.125H145s24.4,1.934,24.4,42.813" transform="translate(-124.111 -274.008)"/><g transform="translate(52.742)"><path class="i" d="M323.06,280.766H308.5a7.222,7.222,0,0,1,0-14.444H323.06a5.524,5.524,0,0,1,5.524,5.524v3.4A5.524,5.524,0,0,1,323.06,280.766Z" transform="translate(-297.963 -266.322)"/><path class="i" d="M315.9,326.417H298.024a7.222,7.222,0,0,1,0-14.444H315.9a5.524,5.524,0,0,1,5.524,5.524v3.4A5.524,5.524,0,0,1,315.9,326.417Z" transform="translate(-290.802 -297.529)"/><path class="i" d="M323.06,372.067H308.5a7.222,7.222,0,0,1,0-14.444H323.06a5.524,5.524,0,0,1,5.524,5.524v3.4A5.524,5.524,0,0,1,323.06,372.067Z" transform="translate(-297.963 -328.735)"/><path class="i" d="M320.242,416.808H307.155a6.767,6.767,0,0,1,0-13.535h13.087a5.524,5.524,0,0,1,5.524,5.524v2.486a5.524,5.524,0,0,1-5.524,5.524Z" transform="translate(-297.355 -359.941)"/></g></g></g><g transform="translate(30.678 9.2)"><path class="c" d="M174.115,72.483h-5.062a1.582,1.582,0,0,1-1.582-1.582V69.325a1.582,1.582,0,0,1,1.582-1.582h5.062a1.582,1.582,0,0,1,1.582,1.582V70.9A1.582,1.582,0,0,1,174.115,72.483Z" transform="translate(-167.471 -67.743)"/><g transform="translate(49.464 0.234)"><path class="c" d="M325.386,72.753a1.582,1.582,0,0,1-1.582-1.582V70.064a1.582,1.582,0,0,1,3.164,0v1.107A1.582,1.582,0,0,1,325.386,72.753Z" transform="translate(-323.804 -68.482)"/><g transform="translate(4.825)"><path class="c" d="M340.636,72.753a1.582,1.582,0,0,1-1.582-1.582V70.064a1.582,1.582,0,0,1,3.164,0v1.107A1.582,1.582,0,0,1,340.636,72.753Z" transform="translate(-339.054 -68.482)"/></g></g></g><g transform="translate(7.208 23.995)"><path class="j" d="M118.394,142.765H96.457a3.164,3.164,0,0,1-3.164-3.164V117.664a3.164,3.164,0,0,1,3.164-3.164h21.937a3.164,3.164,0,0,1,3.164,3.164V139.6A3.164,3.164,0,0,1,118.394,142.765Z" transform="translate(-93.293 -114.5)"/><g transform="translate(8.77 6.856)"><path class="d" d="M121.012,157.577V142.958a6.8,6.8,0,0,1,6.791-6.791h4.442a2.373,2.373,0,1,1,0,4.746H127.8a2.047,2.047,0,0,0-2.045,2.045v14.619Z" transform="translate(-121.012 -136.167)"/></g><path class="d" d="M134.492,161.5h-5.313v4.746h5.313a2.373,2.373,0,1,0,0-4.746Z" transform="translate(-117.825 -146.629)"/></g><g transform="translate(81.807 23.995)"><path class="k" d="M354.166,142.765H332.229a3.164,3.164,0,0,1-3.164-3.164V117.664a3.164,3.164,0,0,1,3.164-3.164h21.937a3.164,3.164,0,0,1,3.164,3.164V139.6A3.164,3.164,0,0,1,354.166,142.765Z" transform="translate(-329.065 -114.5)"/><circle class="d" cx="2.073" cy="2.073" r="2.073" transform="translate(19.751 3.787)"/><path class="c" d="M329.065,167v8.49a3.164,3.164,0,0,0,3.164,3.164h21.937a3.164,3.164,0,0,0,3.164-3.164V167Z" transform="translate(-329.065 -150.389)"/><circle class="d" cx="6.997" cy="6.997" r="6.997" transform="translate(7.136 7.136)"/><circle class="l" cx="2.9" cy="2.9" r="2.9" transform="translate(11.232 11.232)"/></g><g transform="translate(44.742 24.229)"><g transform="translate(0 0)"><path class="l" d="M213.967,143.038h11.851a13.9,13.9,0,1,0-13.9-13.9v11.851a2.047,2.047,0,0,0,2.047,2.047Z" transform="translate(-211.92 -115.242)"/></g><path class="d" d="M237.493,151.232a2.01,2.01,0,0,1-1.426-.591l-1.344-1.344a2.017,2.017,0,0,1,0-2.852l8.3-8.3a2.017,2.017,0,0,1,2.852,0l1.412,1.412a2.017,2.017,0,0,1-2.838,2.866L239,147.874a2.016,2.016,0,0,1-1.505,3.359Z" transform="translate(-227.104 -130.498)"/></g><g transform="translate(39.55 61.643)"><g transform="translate(33.171)"><path class="c" d="M305.358,236.917a1.576,1.576,0,0,1-.463,1.118l-1.846,1.846a1.582,1.582,0,1,1-2.237-2.237l.727-.727-.727-.727a1.582,1.582,0,1,1,2.237-2.237l1.846,1.846a1.577,1.577,0,0,1,.463,1.118Z" transform="translate(-300.348 -233.489)"/></g><path class="c" d="M195.51,236.917a1.577,1.577,0,0,0,.463,1.118l1.846,1.846a1.582,1.582,0,1,0,2.237-2.237l-.727-.727.727-.727a1.582,1.582,0,1,0-2.237-2.237l-1.846,1.846a1.577,1.577,0,0,0-.463,1.118Z" transform="translate(-195.51 -233.489)"/></g><path class="g" d="M82.354,253.125a1.582,1.582,0,0,1-1.582-1.582,1.9,1.9,0,0,0-1.9-1.9,1.582,1.582,0,0,1,0-3.164,1.9,1.9,0,0,0,1.9-1.9,1.582,1.582,0,1,1,3.164,0,1.9,1.9,0,0,0,1.9,1.9,1.582,1.582,0,0,1,0,3.164,1.9,1.9,0,0,0-1.9,1.9A1.582,1.582,0,0,1,82.354,253.125Z" transform="translate(-75.147 -178.348)"/><path class="c" d="M393.652,48.79a1.582,1.582,0,0,1-1.582-1.582,1.9,1.9,0,0,0-1.9-1.9,1.582,1.582,0,1,1,0-3.164,1.9,1.9,0,0,0,1.9-1.9,1.582,1.582,0,1,1,3.164,0,1.9,1.9,0,0,0,1.9,1.9,1.582,1.582,0,1,1,0,3.164,1.9,1.9,0,0,0-1.9,1.9A1.582,1.582,0,0,1,393.652,48.79Z" transform="translate(-287.949 -38.665)"/><path class="g" d="M431.241,76.849a1.578,1.578,0,0,1-1.119-.463l-3.48-3.48a1.582,1.582,0,0,1,0-2.237l3.48-3.48a1.582,1.582,0,0,1,2.237,0l3.48,3.48a1.582,1.582,0,0,1,0,2.237l-3.48,3.48A1.578,1.578,0,0,1,431.241,76.849ZM430,71.786l1.243,1.243,1.243-1.243-1.243-1.243Z" transform="translate(-313.644 -57.846)"/><g transform="translate(0 82.793)"><path class="c" d="M415.652,408.4a1.578,1.578,0,0,1-1.119-.463l-3.48-3.48a1.582,1.582,0,0,1,0-2.237l3.48-3.48a1.582,1.582,0,0,1,2.237,0l3.48,3.48a1.582,1.582,0,0,1,0,2.237l-3.48,3.48A1.576,1.576,0,0,1,415.652,408.4Zm-1.243-5.062,1.243,1.243,1.243-1.243-1.243-1.243Z" transform="translate(-302.987 -367.285)"/><path class="c" d="M75.574,310.459A1.578,1.578,0,0,1,74.455,310l-3.48-3.48a1.582,1.582,0,0,1,0-2.237l3.48-3.48a1.582,1.582,0,0,1,2.237,0l3.48,3.48a1.582,1.582,0,0,1,0,2.237L76.692,310A1.576,1.576,0,0,1,75.574,310.459ZM74.331,305.4l1.243,1.243,1.243-1.243-1.243-1.243Z" transform="translate(-70.511 -300.334)"/></g></g></g><g transform="translate(64.728 15.921)"><g transform="translate(0)"><path class="h" d="M169.8,50.32H114.261a9.879,9.879,0,0,0-9.868,9.868v8.856H93.038a4.751,4.751,0,0,0-4.746,4.746V95.728a4.751,4.751,0,0,0,4.746,4.746h21.937a4.751,4.751,0,0,0,4.746-4.746V73.791a4.751,4.751,0,0,0-4.746-4.746h-7.418V60.188a6.712,6.712,0,0,1,6.7-6.7H169.8a6.712,6.712,0,0,1,6.7,6.7v8.856h-8.863a4.751,4.751,0,0,0-4.746,4.746V95.728a4.751,4.751,0,0,0,4.746,4.746H176.5v16.607H162.9a8.8,8.8,0,0,0-6.285,14.961,8.8,8.8,0,0,0,0,16.575,8.789,8.789,0,0,0,.97,13.17,8.342,8.342,0,0,0-3.382,9.493h-8.374c-1.238-9.729-4.5-20.1-12.054-27.022a27.6,27.6,0,0,0-4.443-3.329h5.905a10.145,10.145,0,0,0,0-20.289,1.582,1.582,0,1,0,0,3.164,6.981,6.981,0,0,1,0,13.961H113.973a1.582,1.582,0,1,0,0,3.164h6.456a21.5,21.5,0,0,1,11.37,5.807c7.542,7.033,11.528,19.282,11.528,35.423a1.582,1.582,0,1,0,3.164,0c0-2.425-.093-5.028-.325-7.716h9.889a8.327,8.327,0,0,0,6.112,2.669h1.784v5.047a1.582,1.582,0,0,0,3.164,0v-5.047h8.139a7.114,7.114,0,0,0,7.106-7.106V167.52a7.075,7.075,0,0,0-1.76-4.674,7.113,7.113,0,0,0,3.97-6.375v-3.4a7.1,7.1,0,0,0-2.643-5.524,7.1,7.1,0,0,0,2.643-5.524v-3.4a7.1,7.1,0,0,0-2.643-5.524,7.1,7.1,0,0,0,2.643-5.524v-3.4a7.118,7.118,0,0,0-4.905-6.756V100.476h9.91a4.751,4.751,0,0,0,4.746-4.746V73.791a4.751,4.751,0,0,0-4.746-4.746h-9.91V60.188A9.879,9.879,0,0,0,169.8,50.32ZM116.558,73.791V95.728a1.584,1.584,0,0,1-1.582,1.582H93.038a1.584,1.584,0,0,1-1.582-1.582V73.791a1.584,1.584,0,0,1,1.582-1.582h21.937A1.584,1.584,0,0,1,116.558,73.791ZM179.2,170.006a3.947,3.947,0,0,1-3.942,3.942H162.167a5.185,5.185,0,0,1,0-10.37h13.087a3.947,3.947,0,0,1,3.942,3.942v2.486Zm2.21-16.93v3.4a3.946,3.946,0,0,1-3.942,3.942H162.9a5.64,5.64,0,0,1,0-11.28h14.561A3.947,3.947,0,0,1,181.406,153.076Zm0-14.444v3.4a3.947,3.947,0,0,1-3.942,3.942H159.589a5.64,5.64,0,0,1,0-11.28h17.875a3.947,3.947,0,0,1,3.942,3.942Zm0-14.444v3.4a3.947,3.947,0,0,1-3.942,3.942H162.9a5.64,5.64,0,0,1,0-11.28h14.561A3.947,3.947,0,0,1,181.406,124.188Zm9.751-50.4V95.728a1.584,1.584,0,0,1-1.582,1.582H167.638a1.584,1.584,0,0,1-1.582-1.582V73.791a1.584,1.584,0,0,1,1.582-1.582h21.937A1.584,1.584,0,0,1,191.157,73.791Z" transform="translate(-88.292 -50.32)"/><path class="h" d="M119.111,264.562v42.545a1.582,1.582,0,0,0,3.164,0V264.562a15.829,15.829,0,0,1,15.811-15.811h7.573a1.582,1.582,0,0,0,0-3.164h-7.573a18.852,18.852,0,0,0-9.461,2.538V234.682a1.582,1.582,0,0,0-3.164,0V250.26c0,.048.01.093.014.14A18.929,18.929,0,0,0,119.111,264.562Z" transform="translate(-109.36 -175.268)"/></g><path class="h" d="M210.549,141.2H222.4a15.48,15.48,0,1,0-15.48-15.48v11.851a3.633,3.633,0,0,0,3.629,3.629Zm-.465-15.48A12.316,12.316,0,1,1,222.4,138.038H210.549a.466.466,0,0,1-.465-.465Z" transform="translate(-169.386 -91.282)"/></g></g></svg>